<svg xmlns="http://www.w3.org/2000/svg" id="potIcon_Animated" preserveAspectRatio="xMinYMin meet" version="1.1" viewBox="0 0 512 512"><g><path d="M5.565,345.218v15.718c0,19.38,15.761,35.148,35.133,35.148h15.265v72.669 c0,23.787,19.455,43.246,43.233,43.246h313.608c23.779,0,43.232-19.46,43.232-43.246v-72.669H471.3 c19.374,0,35.134-15.767,35.134-35.148v-15.718c0-19.38-15.762-35.148-35.134-35.148h-15.264v-43.268H55.964v43.268H40.698 C21.326,310.071,5.565,325.838,5.565,345.218z M456.036,373.85v-41.547H471.3c7.118,0,12.909,5.793,12.909,12.914v15.718 c0,7.12-5.791,12.914-12.909,12.914h-15.264V373.85z M27.792,345.218c0-7.12,5.79-12.914,12.908-12.914h15.264v41.547H40.698 c-7.117,0-12.908-5.793-12.908-12.914v-15.72H27.792z" class="zaTsYZFx_0" style="fill:none;stroke:#8c9096;stroke-width:3"/><path d="M478.261,261.244c0,9.209-7.463,16.676-16.67,16.676h-5.556v11.117H55.964v-11.117h-5.556 c-9.206,0-16.67-7.466-16.67-16.676s7.463-16.676,16.67-16.676h250.359c-0.201-1.825-0.314-3.679-0.314-5.559 c0-27.628,22.39-50.026,50.009-50.026s50.009,22.397,50.009,50.026c0,1.88-0.112,3.732-0.314,5.559h61.437 C470.798,244.569,478.261,252.034,478.261,261.244z M444.922,155.635c-18.412,0-33.339,14.933-33.339,33.35 c0,18.419,14.927,33.35,33.339,33.35c18.409,0,33.339-14.931,33.339-33.35C478.261,170.567,463.331,155.635,444.922,155.635z M417.14,88.934c9.205,0,16.67-7.466,16.67-16.675c0-9.209-7.465-16.676-16.67-16.676c-9.206,0-16.67,7.466-16.67,16.676 C400.47,81.468,407.934,88.934,417.14,88.934z M461.592,33.35c9.205,0,16.67-7.466,16.67-16.676C478.261,7.466,470.796,0,461.592,0 c-9.206,0-16.67,7.466-16.67,16.676C444.922,25.884,452.387,33.35,461.592,33.35z" class="zaTsYZFx_1" style="fill:none;stroke:#d19b3f;stroke-width:2"/><path d="M456.979,117.064c-1.412-5.975-7.401-9.675-13.371-8.261l-144.303,34.129l-2.971-12.57 c-4.458-18.861-23.424-30.575-42.278-26.115l-15.289,3.616c-9.109,2.155-16.846,7.748-21.787,15.752 c-4.941,8.003-6.476,17.428-4.323,26.537l2.97,12.57L71.323,196.854c-5.974,1.412-9.67,7.402-8.258,13.377 c1.209,5.114,5.77,8.562,10.805,8.562c0.846,0,1.706-0.098,2.566-0.302l372.285-88.05 C454.695,129.027,458.391,123.039,456.979,117.064z M234.287,145.038c-0.788-3.33-0.218-6.79,1.604-9.739 c1.822-2.951,4.659-5.009,7.991-5.797l15.29-3.616c6.924-1.638,13.894,2.666,15.534,9.596l2.971,12.568l-40.418,9.56 L234.287,145.038z" class="zaTsYZFx_2" style="fill:none;stroke:#4d515a;stroke-width:3"/></g><style data-made-with="vivus-instant">@keyframes zaTsYZFx_fade{0%,83.33333333333334%{stroke-opacity:1}}@keyframes zaTsYZFx_draw_0{16.666666666666664%{stroke-dashoffset:1653}66.66666666666666%{stroke-dashoffset:0}}@keyframes zaTsYZFx_draw_1{16.666666666666664%{stroke-dashoffset:1439}66.66666666666666%{stroke-dashoffset:0}}@keyframes zaTsYZFx_draw_2{16.666666666666664%{stroke-dashoffset:1026}66.66666666666666%{stroke-dashoffset:0}}.zaTsYZFx_0{stroke-dasharray:1652 1654;stroke-dashoffset:1653;animation:zaTsYZFx_draw_0 3000ms ease-out 0ms infinite,zaTsYZFx_fade 3000ms linear 0ms infinite}.zaTsYZFx_1{stroke-dasharray:1438 1440;stroke-dashoffset:1439;animation:zaTsYZFx_draw_1 3000ms ease-out 0ms infinite,zaTsYZFx_fade 3000ms linear 0ms infinite}.zaTsYZFx_2{stroke-dasharray:1025 1027;stroke-dashoffset:1026;animation:zaTsYZFx_draw_2 3000ms ease-out 0ms infinite,zaTsYZFx_fade 3000ms linear 0ms infinite}</style></svg>